<?xml version="1.0" encoding="utf-8"?>
<!-- Generator: Adobe Illustrator 26.0.1, SVG Export Plug-In . SVG Version: 6.00 Build 0)  -->
<svg version="1.1" id="Слой_1" xmlns="http://www.w3.org/2000/svg" xmlns:xlink="http://www.w3.org/1999/xlink" x="0px" y="0px"
	 viewBox="0 0 136.92 64.74" style="enable-background:new 0 0 136.92 64.74;" xml:space="preserve">
<style type="text/css">
	.st0{fill:url(#SVGID_1_);}
	.st1{fill:url(#SVGID_00000178181035695978265040000005302301485985333413_);}
	.st2{fill:url(#SVGID_00000158719868718378807150000018173904415836810128_);}
	.st3{fill:url(#SVGID_00000180365179166335363600000014412100377479745213_);}
</style>
<radialGradient id="SVGID_1_" cx="57.6003" cy="30.3289" r="11.2017" gradientUnits="userSpaceOnUse">
	<stop  offset="4.792333e-09" style="stop-color:#82368C"/>
	<stop  offset="0.2696" style="stop-color:#80368C"/>
	<stop  offset="0.4641" style="stop-color:#79388D"/>
	<stop  offset="0.6351" style="stop-color:#6B3B8F"/>
	<stop  offset="0.7924" style="stop-color:#583E91"/>
	<stop  offset="0.9391" style="stop-color:#3A4194"/>
	<stop  offset="1" style="stop-color:#274395"/>
</radialGradient>
<path class="st0" d="M56.76,42.66c-5.94-1.08-8.88-2.52-8.88-4.26c0-0.6,0.36-1.26,1.08-1.98c0.36-0.36,0.54-0.72,0.54-1.02
	c0-1.26,0.9-2.28,2.7-2.94c0.84-0.3,1.56-0.42,2.16-0.42c0.54,0,0.78,0.12,0.84,0.36c0,0.24,0.06,0.36,0.24,0.36
	c0.18,0,0.42,0.06,0.78,0.24c0.9,0.42,1.32,0.78,1.32,1.08c0,0.12-0.12,0.18-0.36,0.18c-0.84,0-1.56,0.24-2.16,0.72
	c-0.66,0.48-0.96,0.96-0.96,1.44c0,0.42,0.3,0.72,0.9,0.9c0.9,0.18,2.28,0.3,4.08,0.3c0.96,0,1.5-0.06,1.56-0.12
	c0-0.24-0.36-1.02-1.08-2.4c-1.86-3.66-2.76-6.66-2.76-9c0-0.9,0.18-1.68,0.48-2.22c0.54-0.96,0.9-1.44,0.96-1.44
	c0.06,0,0.18-0.24,0.24-0.72c0.24-1.14,0.78-2.1,1.56-2.82c0.78-0.72,1.56-1.08,2.46-1.08c0.36,0,0.72,0.06,1.14,0.24
	c0.36,0.18,0.54,0.3,0.54,0.36c0,0.12,0.24,0.24,0.72,0.42c0.42,0.18,0.72,0.48,0.78,0.78c0.06,0.36,0.24,0.54,0.42,0.54
	c0.66,0,0.96,0.72,0.96,2.16c0,1.02-0.36,2.04-1.08,2.94c-0.9,1.02-1.5,1.5-1.8,1.5c-0.06,0-0.12-0.06-0.12-0.18l0.12-0.42
	l-0.42,0.42l0.06-2.22c0-0.36-0.18-0.78-0.54-1.26c0,0.24,0.12,0.78,0.3,1.68c0,0.3-0.06,0.42-0.12,0.42c-0.06,0-0.24-0.3-0.48-0.9
	c-0.06,0-0.12,0.42-0.12,1.2c0,2.04,0.84,4.62,2.52,7.8c1.32,2.34,1.98,3.96,1.98,4.92c0,0.48-0.12,0.9-0.42,1.26
	c-0.72,1.02-1.8,1.86-3.24,2.46c-1.5,0.6-3.06,0.9-4.74,0.9C58.2,42.84,57.48,42.78,56.76,42.66z M49.62,39.54
	c-0.42-0.3-0.6-0.66-0.6-1.02c0-0.18-0.06-0.3-0.12-0.3c-0.12,0.06-0.18,0.18-0.18,0.48l0.06,0.6c0.06,0.06,0.3,0.24,0.72,0.48
	c0.36,0.24,0.6,0.36,0.66,0.36C50.16,40.08,49.98,39.84,49.62,39.54z M52.26,33.9c0.78-0.66,1.62-1.02,2.52-1.2
	c0.12,0,0.18,0,0.18-0.06c-0.06-0.06-0.36-0.12-0.84-0.12c-0.42,0-0.66,0-0.66,0.06s-0.12,0.12-0.42,0.12
	c-0.3,0.06-0.72,0.24-1.14,0.6c-0.42,0.36-0.72,0.78-0.78,1.26C51.24,34.56,51.6,34.32,52.26,33.9z M61.5,36.42
	c-2.34-3.96-3.54-7.32-3.54-10.14c0-0.78,0-1.2-0.06-1.2s-0.18,0.48-0.24,1.38c0,1.98,0.6,4.38,1.86,7.2
	c1.02,2.22,1.74,3.36,2.16,3.36C61.68,36.84,61.62,36.66,61.5,36.42z M61.38,38.58l-0.48-0.06c-0.18,0-0.36,0.06-0.48,0.12
	c0,0.06,0.12,0.06,0.36,0.06C61.2,38.64,61.38,38.64,61.38,38.58z M62.16,19.56c0.42-0.24,0.6-0.42,0.6-0.48
	c0-0.06-0.06-0.12-0.18-0.24c-0.18-0.06-0.3-0.12-0.48-0.12c-0.12,0-0.3,0.12-0.54,0.3c-0.3,0.18-0.54,0.42-0.72,0.66
	c-0.24,0.24-0.36,0.42-0.36,0.54c0,0.18,0.06,0.3,0.18,0.3C60.84,20.52,61.32,20.22,62.16,19.56z M62.4,38.28
	c0-0.12-0.06-0.18-0.18-0.18c-0.06,0-0.12,0.06-0.12,0.12c0.12,0.18,0.18,0.24,0.24,0.24S62.4,38.4,62.4,38.28z M66.48,21.24
	c0-0.06-0.12-0.18-0.3-0.24l-0.06,0.12c0,0.12,0.12,0.18,0.36,0.18V21.24z"/>
<radialGradient id="SVGID_00000019662047013409882610000007883331215730554758_" cx="82.0796" cy="23.189" r="19.2788" gradientUnits="userSpaceOnUse">
	<stop  offset="4.792333e-09" style="stop-color:#82368C"/>
	<stop  offset="0.2696" style="stop-color:#80368C"/>
	<stop  offset="0.4641" style="stop-color:#79388D"/>
	<stop  offset="0.6351" style="stop-color:#6B3B8F"/>
	<stop  offset="0.7924" style="stop-color:#583E91"/>
	<stop  offset="0.9391" style="stop-color:#3A4194"/>
	<stop  offset="1" style="stop-color:#274395"/>
</radialGradient>
<path style="fill:url(#SVGID_00000019662047013409882610000007883331215730554758_);" d="M85.02,46.32c0-0.12-0.06-0.18-0.12-0.18
	l-0.24,0.06c-0.3,0-0.42-0.36-0.42-1.14c0-0.42,0.24-2.46,0.72-6.06c-0.12,0.12-0.36,1.32-0.78,3.6c-0.18,1.8-0.36,2.7-0.48,2.7
	c-0.12-0.24-0.18-0.48-0.18-0.78c0-0.96,0.18-2.46,0.54-4.56c0.36-2.04,0.78-3.72,1.2-4.98c0.36-1.08,1.02-2.64,1.98-4.74
	c1.02-2.4,1.68-3.9,2.1-4.5c0.36-0.6,0.54-0.96,0.54-1.02c-0.48,0.18-2.16,1.68-4.98,4.56c-4.26,4.38-7.44,7.8-9.54,10.26
	c-1.74,2.1-2.88,3.18-3.3,3.18c-0.18,0-0.36,0.12-0.54,0.3c-0.24,0.18-0.48,0.3-0.72,0.3c-0.3,0-0.48-0.18-0.54-0.48
	c-0.06-0.3-0.36-0.48-0.96-0.48c-0.18,0-0.3,0.06-0.36,0.12c-0.06,0.12-0.18,0.18-0.3,0.18c-0.06,0-0.24-0.06-0.48-0.24
	c-0.3-0.12-0.42-0.36-0.42-0.66c0-0.6,1.44-4.44,4.32-11.52c0.18-0.6,0.42-1.14,0.66-1.62c0.18-0.48,0.36-0.84,0.42-1.02
	c0.3-0.78,0.6-1.38,0.78-1.8c0.18-0.36,0.9-1.86,2.04-4.56c2.4-5.58,3.66-8.46,3.84-8.64c0.12-0.12,0.3-0.42,0.54-0.96
	c0.06-0.3,0.3-0.78,0.6-1.32C84.6,3.42,86.82,0,87.6,0c0.18,0,0.3,0.06,0.3,0.24c0,0.06-0.06,0.18-0.24,0.24
	c-0.18,0.12-0.42,0.48-0.72,1.14l0.36-0.18l0.18,0.06c0.06,0,0.12-0.12,0.24-0.3c0.24-0.3,0.42-0.48,0.6-0.48
	c0.24,0,0.42,0.24,0.48,0.66s0.18,0.66,0.3,0.66c0.06,0,0.12,0,0.12,0.06c0,0.66-1.2,3.66-3.6,9c-3.36,7.56-6.12,13.92-8.28,19.02
	c0.06,0,0.54-0.36,1.32-1.08c2.1-1.92,4.38-3.78,6.9-5.64c3.78-2.7,6.24-4.08,7.32-4.08l-0.72,0.48c-2.82,1.62-6.06,4.08-9.84,7.26
	c-3.3,2.82-4.92,4.44-4.92,4.74c0.12,0,0.54-0.36,1.26-1.02s1.14-1.08,1.32-1.14c0.12-0.06,0.3-0.18,0.48-0.36
	c0.18-0.18,0.42-0.36,0.78-0.66c0.3-0.3,0.72-0.66,1.26-1.14c0.36-0.36,0.6-0.54,0.72-0.54c0.06,0,0.12,0,0.18-0.06
	c1.02-1.02,3.18-2.7,6.48-4.92c1.62-1.14,2.7-1.92,3.18-2.34c0.78-0.72,1.32-1.08,1.68-1.08c0.18,0.06,0.3,0.12,0.3,0.18
	s-0.12,0.24-0.36,0.42c-0.48,0.48-0.72,0.78-0.72,0.96c0,0.06,0.06,0.12,0.12,0.12c0.12,0,0.36-0.12,0.72-0.42
	c0.36-0.3,0.6-0.42,0.78-0.42c0.18,0,0.3,0.24,0.36,0.66s0.12,0.66,0.24,0.66l0.24-0.3c0,0.18-0.18,0.66-0.48,1.56
	c-1.02,2.58-1.74,4.38-2.28,5.4c-0.3,0.66-0.84,1.8-1.5,3.42c-1.92,4.5-3.3,7.86-4.14,10.14c-0.84,2.34-1.44,3.78-1.74,4.32
	c-0.42,0.78-0.84,1.14-1.2,1.14L85.02,46.32z M68.88,40.98c0-0.06,0-0.12-0.06-0.12c-0.18,0.06-0.3,0.18-0.3,0.3
	c0,0.12,0.06,0.18,0.18,0.18S68.88,41.22,68.88,40.98z M85.56,37.38c0-0.12-0.06-0.18-0.12-0.18c-0.12,0-0.18,0.12-0.24,0.3
	c0,0.12,0.06,0.18,0.18,0.18L85.56,37.38z"/>
<radialGradient id="SVGID_00000153697244837694803320000007308464808510496157_" cx="105.3589" cy="30.0889" r="10.5194" gradientUnits="userSpaceOnUse">
	<stop  offset="4.792333e-09" style="stop-color:#82368C"/>
	<stop  offset="0.2696" style="stop-color:#80368C"/>
	<stop  offset="0.4641" style="stop-color:#79388D"/>
	<stop  offset="0.6351" style="stop-color:#6B3B8F"/>
	<stop  offset="0.7924" style="stop-color:#583E91"/>
	<stop  offset="0.9391" style="stop-color:#3A4194"/>
	<stop  offset="1" style="stop-color:#274395"/>
</radialGradient>
<path style="fill:url(#SVGID_00000153697244837694803320000007308464808510496157_);" d="M99.84,40.56
	c-0.66-0.3-1.14-0.42-1.44-0.48c-1.02-0.18-1.86-0.66-2.4-1.44c-0.54-0.72-0.84-1.62-0.84-2.7c0-1.2,0.36-2.58,1.14-4.08
	c0.12-0.18,0.42-0.9,0.96-2.04c1.26-2.94,2.7-5.28,4.32-7.08s3.06-2.7,4.44-2.7c1.62,0.06,2.4,0.3,2.4,0.66s0.3,0.54,0.9,0.54
	c0.18,0,0.36-0.06,0.54-0.24c0.18-0.12,0.6-0.42,1.38-0.84c0.54-0.24,0.78-0.36,0.78-0.42s-0.18-0.06-0.54-0.06
	c-0.42,0-0.6-0.06-0.6-0.12c0.18-0.18,0.48-0.3,0.9-0.3c0.54,0,1.14,0.3,1.74,0.84c0.6,0.54,1.02,1.32,1.32,2.22
	c0.18,0.72,0.36,1.14,0.54,1.32c0.12,0.18,0.18,0.42,0.18,0.84c0,1.02-0.3,2.4-0.96,4.14c-0.66,1.74-1.5,3.36-2.46,4.8
	c-1.5,2.1-3.3,3.9-5.4,5.34c-2.16,1.44-3.96,2.16-5.46,2.16C100.74,40.92,100.26,40.8,99.84,40.56z M97.02,38.88
	c0-0.12-0.06-0.36-0.24-0.66c-0.3-0.54-0.42-1.2-0.42-2.1c0-0.66,0-1.02-0.06-1.02c-0.12,0.24-0.18,0.6-0.18,1.14
	c0,0.42,0.06,0.9,0.12,1.32s0.12,0.78,0.3,1.02c0.18,0.24,0.3,0.36,0.36,0.36S97.02,38.94,97.02,38.88z M102.42,35.1
	c2.34-0.9,4.5-2.52,6.48-4.98c1.98-2.4,2.94-4.56,2.94-6.54c0-0.78,0.06-1.2,0.18-1.2c0.06,0,0.18,0.36,0.24,1.14
	c0.06,0.54,0.12,0.84,0.18,0.84c0.06,0,0.12-0.36,0.12-1.02c0-0.6-0.06-1.02-0.18-1.2c-0.18-0.18-0.48-0.24-1.02-0.24
	c-0.6,0-0.9,0.18-0.9,0.54l0.12,0.6l-0.06,0.12l-0.36-0.12c0.18,0.3,0.3,0.48,0.3,0.54c0,0.54-0.54,0.84-1.68,0.9
	c-1.38,0.18-2.82,1.32-4.38,3.36s-2.58,4.2-3.06,6.42c-0.06,0.36-0.12,0.66-0.12,0.84s0.06,0.24,0.24,0.24
	C101.64,35.34,101.94,35.28,102.42,35.1z M103.32,23.52c1.14-0.9,2.4-1.68,3.78-2.4c0-0.06-0.12-0.06-0.42-0.06
	c-0.66,0-1.2,0.12-1.62,0.3c-0.42,0.18-1.02,0.66-1.68,1.32c-1.32,1.26-1.98,2.04-1.98,2.22C101.52,24.9,102.18,24.42,103.32,23.52z
	 M106.14,34.62c0.96-1.02,1.44-1.56,1.44-1.62c-0.12,0-0.42,0.24-0.9,0.66c-0.9,0.78-1.74,1.38-2.64,1.8
	c-1.14,0.54-1.68,0.9-1.68,1.02c0,0.06,0.06,0.06,0.18,0.06C103.8,36.54,105,35.88,106.14,34.62z"/>
<radialGradient id="SVGID_00000116921920351329580460000014919985486571057328_" cx="122.6392" cy="41.2783" r="19.4193" gradientUnits="userSpaceOnUse">
	<stop  offset="4.792333e-09" style="stop-color:#82368C"/>
	<stop  offset="0.2696" style="stop-color:#80368C"/>
	<stop  offset="0.4641" style="stop-color:#79388D"/>
	<stop  offset="0.6351" style="stop-color:#6B3B8F"/>
	<stop  offset="0.7924" style="stop-color:#583E91"/>
	<stop  offset="0.9391" style="stop-color:#3A4194"/>
	<stop  offset="1" style="stop-color:#274395"/>
</radialGradient>
<path style="fill:url(#SVGID_00000116921920351329580460000014919985486571057328_);" d="M109.14,64.56c0-0.06-0.06-0.12-0.18-0.12
	c-0.12,0-0.18-0.3-0.18-0.96c0-0.9,0.24-3,0.72-6.36c-0.06,0-0.12,0.18-0.18,0.48c-0.12,0.3-0.24,0.66-0.3,1.08
	c-0.06,0.42-0.12,0.84-0.18,1.2c-0.06,0.18-0.06,0.42-0.12,0.6c-0.06,0.24-0.12,0.42-0.18,0.6s-0.12,0.24-0.18,0.24
	c0-2.64,1.32-8.88,4.02-18.66c0.3-1.32,0.54-2.04,0.72-2.22c0.12-0.18,0.18-0.36,0.18-0.54s0.24-0.84,0.78-2.1
	c0.54-1.26,0.78-1.92,0.78-2.04c0-0.06,0.24-0.66,0.72-1.8c0.78-1.98,1.86-4.32,3.18-7.02c1.86-3.78,3-6,3.42-6.6
	c0.18-0.3,0.3-0.42,0.3-0.48c1.02-1.38,1.62-2.04,1.86-2.04c0.06,0,0.12,0.06,0.12,0.18c0,0.12-0.24,0.66-0.72,1.62
	c0.12,0,0.48-0.24,1.02-0.72c0.3-0.24,0.48-0.36,0.6-0.36c0.18,0,0.36,0.3,0.42,0.84c0.06,0.36,0.12,0.54,0.24,0.54l0.3-0.12
	c0,0.3-0.42,1.8-1.32,4.5c-0.12,0.3-0.18,0.54-0.18,0.66c-0.18,0.36-0.36,0.72-0.54,1.02c0.12,0,0.66-0.48,1.56-1.44
	c1.98-2.04,3.84-3.54,5.7-4.44c0.72-0.36,1.08-0.54,1.08-0.6c0-0.06-0.06-0.12-0.18-0.12c-0.24,0-0.6,0.12-1.14,0.3
	s-1.02,0.48-1.5,0.78c-0.48,0.3-0.78,0.48-0.9,0.48v-0.12c0.12-0.18,0.3-0.36,0.6-0.48c0.24-0.12,0.36-0.24,0.36-0.3
	c0-0.3,0.3-0.54,0.96-0.78c0.66-0.18,1.26-0.3,1.92-0.3c0.54,0,0.9,0.12,1.14,0.3c0.24,0.24,0.48,0.36,0.66,0.36
	c0.18,0,0.36,0.24,0.66,0.66c0.24,0.48,0.42,0.72,0.6,0.72c0.06,0,0.12-0.06,0.24-0.18c0,0.3,0.06,0.42,0.18,0.42
	c0.06,0,0.18,0.18,0.3,0.48c0.3,0.78,0.42,1.56,0.42,2.4c0,1.02-0.42,2.46-1.2,4.44c-0.78,1.98-1.74,3.84-2.82,5.7
	c-1.08,1.86-2.04,3.18-2.94,3.96c-0.9,0.78-1.8,1.44-2.82,1.86c-1.02,0.48-1.86,0.72-2.58,0.72c-0.24,0-0.54-0.12-0.9-0.3
	c-0.36-0.18-0.66-0.3-0.96-0.36c-0.3-0.06-0.54-0.12-0.84-0.12c-0.84,0-1.56-0.3-2.1-0.9c-0.66,0-2.76,5.22-6.3,15.66
	c-2.22,6.66-3.6,9.96-4.2,9.96C109.2,64.74,109.14,64.68,109.14,64.56z M120.84,39c-0.3-0.78-0.48-1.32-0.48-1.74
	c0-0.42,0-0.6-0.06-0.6c-0.18,0-0.3,0.3-0.3,0.84c0,0.42,0.12,0.78,0.36,1.08c0.18,0.36,0.36,0.54,0.42,0.54L120.84,39z
	 M125.28,34.92c1.14-0.66,2.34-1.92,3.48-3.9c1.14-1.92,1.92-3.96,2.46-6.06c0.18-0.9,0.24-1.5,0.24-1.92
	c0-0.54-0.12-0.78-0.42-0.78c-0.78,0-2.22,1.2-4.32,3.54c-3.42,3.9-5.16,6.24-5.16,7.08c0,0.12,0.06,0.18,0.18,0.18
	c0.06,0,0.12,0.06,0.12,0.12l-0.12,0.54l0.06,0.06l0.66-0.24c0.06,0,0.12,0.06,0.18,0.24c0.3,0.78,0.48,1.14,0.6,1.14
	s0.24,0.06,0.42,0.18c0.18,0.18,0.3,0.24,0.48,0.24S124.74,35.22,125.28,34.92z M126.24,36c0.06-0.12,0.12-0.24,0.12-0.36
	c-0.78,0.36-1.14,0.6-1.14,0.72l0.24,0.06C125.76,36.42,126,36.3,126.24,36z M126.42,23.1c0.6-0.6,0.96-0.9,1.02-0.9
	c0,0.06-0.3,0.42-0.84,0.96c-0.66,0.66-1.02,1.02-1.08,1.02C125.52,24.06,125.82,23.7,126.42,23.1z M128.1,21.54
	c0.06-0.18,0.18-0.3,0.24-0.3s0.12,0.06,0.12,0.18c0,0.12-0.06,0.18-0.24,0.18L128.1,21.54z M132.3,22.56
	c-0.12-0.3-0.24-0.48-0.42-0.48l-0.06,0.12c0.06,0.3,0.24,0.48,0.42,0.48L132.3,22.56z M136.08,21.84
	c-0.12-0.24-0.18-0.36-0.24-0.36l-0.06,0.12c0,0.06,0,0.18,0.06,0.36c0.06,0.18,0.12,0.3,0.18,0.42c0.06,0.12,0.18,0.18,0.24,0.18
	C136.26,22.38,136.2,22.14,136.08,21.84z"/>
<g>
	<path d="M28.65,49.42l-2.96-9.05H9.73l-3.16,9.05H0L17.43,5.91h1.55l16.17,43.51H28.65z M17.93,17.16l-6.65,18.9h12.74L17.93,17.16
		z"/>
	<path d="M49.34,50h-2.96l-16-43.51h6.5l11.04,31.61L58.56,6.5h6.3L49.34,50z"/>
</g>
</svg>
