<?xml version="1.0" encoding="utf-8"?>
<!-- Generator: Adobe Illustrator 26.0.1, SVG Export Plug-In . SVG Version: 6.00 Build 0)  -->
<svg version="1.1" id="레이어_1" xmlns="http://www.w3.org/2000/svg" xmlns:xlink="http://www.w3.org/1999/xlink" x="0px"
	 y="0px" viewBox="0 0 40 40" style="enable-background:new 0 0 40 40;" xml:space="preserve">
<style type="text/css">
	.st0{stroke:#000000;stroke-width:0.75;stroke-miterlimit:10;}
</style>
<path class="st0" d="M32.5,9.1h-4.2c-0.5-4.1-4-7.2-8.1-7.1h-0.5c-4.1-0.1-7.6,3-8.1,7.1H7.5c-1.5,0-2.8,1.2-2.8,2.8l0,0v23.3
	C4.7,36.7,6,38,7.5,38l0,0h24.9c1.5,0,2.8-1.2,2.8-2.8l0,0V11.9C35.3,10.3,34,9.1,32.5,9.1L32.5,9.1z M19.8,3.9h0.5
	C23.3,3.8,26,6,26.4,9.1H13.6C14,6,16.7,3.8,19.8,3.9z M33.4,35.2c0,0.5-0.4,0.9-0.9,0.9H7.5c-0.5,0-0.9-0.4-0.9-0.9V11.9
	C6.6,11.4,7,11,7.5,11h4.1c0,0.6,0,1.1,0,1.7c0,0.9,0,1.7,0,2.7c0,0.5,0.1,0.9,0.7,1.1c0.4,0.1,0.8,0,1-0.3c0.3-0.3,0.2-0.6,0.2-1
	c0-0.8,0-1.3,0-2.1c0-0.7,0-1.4,0-2.1h12.9v4.6c0,0.5,0.4,0.9,1,0.9s1-0.4,1-0.9V11h4.1c0.5,0,0.9,0.4,0.9,0.9
	C33.4,11.9,33.4,35.2,33.4,35.2z"/>
</svg>
